<svg width="354" height="93" viewBox="0 0 354 93" fill="none" xmlns="http://www.w3.org/2000/svg">
<g clip-path="url(#clip0_22_173)">
<g clip-path="url(#clip1_22_173)">
<g clip-path="url(#clip2_22_173)">
<path d="M1.11609 1.43668H12.8527V5.10889H5.54434V9.10511H12.4207V12.7773H5.54434V17.1696H13.1048V20.8418H1.11609V1.43668Z" fill="#0D68B1"/>
<path d="M15.4808 -0.00338745H19.7651V20.8418H15.4808V-0.00338745Z" fill="#0D68B1"/>
<path d="M26.0655 15.0814C26.3175 17.0976 27.6136 17.8536 29.7017 17.8536C31.0424 17.8496 32.354 17.4624 33.4819 16.7375V20.2657C32.0561 20.9011 30.506 21.2086 28.9456 21.1658C24.8414 21.1658 21.7092 18.3576 21.7092 13.5694C21.7092 8.7811 24.4814 6.00894 28.3696 6.00894C32.9779 6.00894 34.634 9.82516 34.634 14.1094V15.0094L26.0655 15.0814ZM30.8177 12.2373C30.8177 10.5812 30.1337 9.21312 28.4416 9.21312C26.8935 9.21312 26.1375 10.5812 26.0655 12.2373H30.8177Z" fill="#0D68B1"/>
<path d="M46.0106 10.5092C45.2587 9.96411 44.3465 9.68538 43.4184 9.71717C41.5463 9.71717 40.1422 11.2293 40.1422 13.7134C40.1422 16.0175 41.7983 17.5296 43.6704 17.5296C44.6035 17.5426 45.5232 17.3065 46.3346 16.8456L46.4426 20.5538C45.3284 20.9832 44.1445 21.2029 42.9504 21.2018C38.8462 21.2018 35.714 18.4297 35.714 13.6414C35.714 8.85312 38.8462 6.04497 42.9504 6.04497C44.1391 6.01554 45.3158 6.28804 46.3706 6.83701L46.0106 10.5092Z" fill="#0D68B1"/>
<path d="M46.8386 6.36897H49.3588V3.12879L53.571 1.6167V6.36897H56.5592V9.86116H53.571V15.1895C53.571 16.9536 53.931 17.8176 55.2991 17.8176C55.7353 17.793 56.1688 17.7328 56.5952 17.6376L56.7392 20.8778C55.8456 21.0271 54.944 21.1233 54.039 21.1658C50.1868 21.1658 49.2868 19.1857 49.2868 15.7655V9.86116H46.8386V6.36897Z" fill="#0D68B1"/>
<path d="M66.7837 10.3652C66.3152 10.2346 65.8299 10.174 65.3436 10.1852C63.3635 10.1852 62.2115 11.8773 62.2115 14.7214V20.8418H57.8912V6.36897H61.8155V9.03312H61.8515C62.5715 7.19701 63.6516 6.04495 65.5237 6.04495C66.0089 6.05159 66.4918 6.11197 66.9637 6.22496L66.7837 10.3652Z" fill="#0D68B1"/>
<path d="M66.8917 13.6054C66.8917 8.7811 70.0239 6.00894 74.0921 6.00894C78.1604 6.00894 81.2925 8.7811 81.2925 13.6054C81.2925 18.4296 78.1604 21.1658 74.0921 21.1658C70.0239 21.1658 66.8917 18.3936 66.8917 13.6054ZM76.8643 13.6054C76.8643 11.4452 76.0722 9.53713 74.0921 9.53713C72.112 9.53713 71.284 11.4452 71.284 13.6054C71.284 15.7655 72.076 17.6736 74.0921 17.6736C76.1082 17.6736 76.8643 15.7655 76.8643 13.6054Z" fill="#0D68B1"/>
<path d="M1.29607 41.4349C2.66974 42.2803 4.25556 42.7173 5.86833 42.695C7.27241 42.695 8.60448 42.371 8.60448 40.8229C8.60448 37.2227 0.756042 39.4908 0.756042 32.4344C0.756042 27.7542 4.68026 26.4941 7.99245 26.4941C9.45192 26.4783 10.9026 26.7221 12.2767 27.2141L11.9887 31.2104C10.8456 30.6094 9.5718 30.3003 8.28046 30.3103C7.1644 30.3103 5.2923 30.4183 5.2923 32.1104C5.2923 35.2426 13.1407 33.1545 13.1407 40.1389C13.1407 45.1791 9.50453 46.5472 5.83233 46.5472C4.14236 46.5416 2.46449 46.2619 0.86405 45.7192L1.29607 41.4349Z" fill="#0D68B1"/>
<path d="M13.5728 31.7504H16.0929V28.5102L20.3051 26.9981V31.7504H23.2933V35.2426H20.3051V40.5709C20.3051 42.335 20.6652 43.199 22.0332 43.199C22.4694 43.1744 22.9029 43.1142 23.3293 43.019L23.4733 46.2592C22.5797 46.4085 21.6781 46.5047 20.7732 46.5472C16.9569 46.5472 16.0209 44.5671 16.0209 41.1469V35.2426H13.5728V31.7504Z" fill="#0D68B1"/>
<path d="M32.7618 46.2232C32.7258 45.4311 32.6538 44.7111 32.6538 43.9551H32.6178C31.6457 45.7552 30.4577 46.5472 28.6936 46.5472C26.2454 46.5472 24.0493 45.1431 24.0493 41.9749C24.0493 37.5467 28.1535 37.0427 30.4577 37.0427C31.1334 37.049 31.8076 37.1092 32.4738 37.2227C32.4378 35.2426 31.1777 34.7385 29.6296 34.7385C28.2312 34.6944 26.8518 35.0706 25.6694 35.8186L25.5974 32.4344C27.1518 31.7108 28.8515 31.3536 30.5657 31.3904C33.7339 31.3904 36.47 32.9744 36.47 37.4027V42.803C36.463 43.9479 36.5473 45.0916 36.722 46.2232H32.7618ZM29.8096 43.199C31.4297 43.199 32.4378 41.4709 32.4378 39.7788C31.8978 39.7428 31.2857 39.7068 30.6377 39.7068C29.1976 39.7068 28.0455 40.2469 28.0455 41.6149C28.0455 42.623 28.8376 43.199 29.8096 43.199Z" fill="#0D68B1"/>
<path d="M36.9741 31.7504H39.4942V28.5102L43.7064 26.9981V31.7504H46.6946V35.2426H43.7064V40.5709C43.7064 42.335 44.0665 43.199 45.4345 43.199C45.8707 43.1744 46.3042 43.1142 46.7306 43.019L46.8746 46.2592C45.9811 46.4085 45.0794 46.5047 44.1745 46.5472C40.3582 46.5472 39.4222 44.5671 39.4222 41.1469V35.2426H36.9741V31.7504Z" fill="#0D68B1"/>
<path d="M52.743 29.3743H48.4587V25.7021H52.743V29.3743ZM48.4587 31.7504H52.743V46.2232H48.4587V31.7504Z" fill="#0D68B1"/>
<path d="M64.5876 35.8546C63.8358 35.3095 62.9236 35.0308 61.9955 35.0626C60.1234 35.0626 58.7193 36.5747 58.7193 39.0588C58.7193 41.3629 60.3754 42.875 62.2475 42.875C63.1806 42.888 64.1002 42.6519 64.9116 42.191L65.0196 45.9352C63.9055 46.3646 62.7215 46.5843 61.5274 46.5832C57.4232 46.5832 54.327 43.8111 54.327 39.0228C54.327 34.2345 57.4232 31.4264 61.5634 31.4264C62.7521 31.3969 63.9289 31.6695 64.9836 32.2184L64.5876 35.8546Z" fill="#0D68B1"/>
<path d="M4.10423 56.0157H0V52.1635H12.6727V56.0157H8.56848V71.5686H4.10423V56.0157Z" fill="#0D68B1"/>
<path d="M15.1208 65.8083C15.3729 67.8244 16.6689 68.5804 18.793 68.5804C20.1443 68.5717 21.4662 68.1851 22.6093 67.4644V70.9926C21.1667 71.6148 19.6078 71.9216 18.037 71.8926C13.9328 71.8926 10.8006 69.0845 10.8006 64.2962C10.8006 59.5079 13.6088 56.7358 17.461 56.7358C22.0692 56.7358 23.7613 60.552 23.7613 64.8362V65.7363H15.1208V65.8083ZM19.8371 62.9641C19.8371 61.308 19.1531 59.94 17.461 59.94C15.9129 59.94 15.1568 61.308 15.0848 62.9641H19.8371Z" fill="#0D68B1"/>
<path d="M35.102 61.236C34.3501 60.6909 33.4379 60.4122 32.5098 60.444C30.6377 60.444 29.1976 61.9561 29.1976 64.4402C29.1976 66.7443 30.8537 68.2564 32.7258 68.2564C33.6589 68.2694 34.5786 68.0333 35.39 67.5724L35.498 71.3166C34.3723 71.7496 33.1759 71.9694 31.9698 71.9646C27.8656 71.9646 24.7334 69.1925 24.7334 64.4042C24.7334 59.6159 27.8656 56.8078 31.9698 56.8078C33.1585 56.7784 34.3352 57.0509 35.39 57.5998L35.102 61.236Z" fill="#0D68B1"/>
<path d="M36.722 50.7234H41.0063V59.2199H41.0423C41.9783 57.7078 43.3464 56.7358 45.1825 56.7358C48.5667 56.7358 49.9348 59.5079 49.9348 62.5321V71.5686H45.6505V64.5482C45.6505 61.8121 44.8585 60.912 43.6704 60.912C41.9063 60.912 41.0063 62.3161 41.0063 65.4483V71.5686H36.722V50.7234Z" fill="#0D68B1"/>
<path d="M52.0589 57.0958H55.9831V59.76H56.0191C56.3603 58.8449 56.9837 58.0622 57.7992 57.525C58.6147 56.9878 59.58 56.724 60.5554 56.7718C63.9396 56.7718 65.3076 59.5439 65.3076 62.5681V71.6046H60.9874V64.5842C60.9874 61.8481 60.1593 60.948 59.0073 60.948C57.2432 60.948 56.3431 62.3521 56.3431 65.4843V71.6046H52.0589V57.0958Z" fill="#0D68B1"/>
<path d="M66.8198 64.3322C66.8198 59.5079 69.9519 56.7358 74.0562 56.7358C78.1604 56.7358 81.2926 59.5079 81.2926 64.3322C81.2926 69.1565 78.1604 71.8926 74.0562 71.8926C69.9519 71.8926 66.8198 69.1205 66.8198 64.3322ZM76.8283 64.3322C76.8283 62.1721 76.0363 60.228 74.0202 60.228C72.0041 60.228 71.212 62.1361 71.212 64.3322C71.212 66.5283 72.0401 68.4004 74.0202 68.4004C76.0003 68.4004 76.8283 66.4923 76.8283 64.3322Z" fill="#0D68B1"/>
<path d="M83.2726 50.7234H87.5929V71.5686H83.2726V50.7234Z" fill="#0D68B1"/>
<path d="M89.573 64.3322C89.573 59.5079 92.7052 56.7358 96.8094 56.7358C100.914 56.7358 104.046 59.5079 104.046 64.3322C104.046 69.1565 100.914 71.8926 96.8094 71.8926C92.7052 71.8926 89.573 69.1205 89.573 64.3322ZM99.6176 64.3322C99.6176 62.1721 98.7895 60.228 96.8094 60.228C94.8293 60.228 94.0012 62.1361 94.0012 64.3322C94.0012 66.5283 94.8293 68.4004 96.8094 68.4004C98.7895 68.4004 99.5816 66.4923 99.6176 64.3322Z" fill="#0D68B1"/>
<path d="M118.735 69.8765C118.735 75.8169 116.25 77.761 111.21 77.761C109.585 77.7514 107.974 77.4464 106.458 76.8609L106.674 72.9007C107.93 73.7045 109.396 74.118 110.886 74.0888C113.37 74.0888 114.702 72.7207 114.702 69.9125V69.1205H114.666C113.622 70.8126 112.218 71.6046 110.49 71.6046C107.07 71.6046 104.946 68.6165 104.946 64.3322C104.946 60.048 106.71 56.8078 110.562 56.8078C112.398 56.8078 113.874 57.9599 114.81 59.76H114.846V57.1678H118.735V69.8765ZM111.822 67.7164C113.334 67.7164 114.558 66.2043 114.558 64.0082C114.558 62.3881 113.73 60.588 111.822 60.588C110.202 60.588 109.374 62.2081 109.374 64.1882C109.374 66.4563 110.526 67.7524 111.822 67.7164Z" fill="#0D68B1"/>
<path d="M120.931 73.5847C121.469 73.7992 122.043 73.9092 122.623 73.9088C123.667 73.9088 124.495 73.1887 124.783 71.8926L119.743 57.0958H124.387L127.051 66.5283H127.087L129.643 57.0958H133.927L129.355 70.5606C128.131 74.1968 127.195 77.725 123.271 77.725C122.373 77.7259 121.478 77.6171 120.607 77.4009L120.931 73.5847Z" fill="#0D68B1"/>
<path d="M135.08 55.6197H133.927V54.5757H137.312V55.6197H136.16V59.3639H135.116L135.08 55.6197ZM138.248 54.6117H139.76L140.624 57.3838L141.488 54.6117H143V59.3639H141.956V56.2318H141.92L141.056 59.3279H140.192L139.328 56.2318V59.3279H138.248V54.6117Z" fill="#0D68B1"/>
<path d="M105.63 0.932678L94.7213 11.8413L107.79 24.91L116.827 15.8735L118.483 17.5296L98.9695 37.0427L97.3134 35.3866L106.134 26.5661L93.1012 13.5334L82.4446 24.118L112.866 53.7116L135.62 30.9584L105.63 0.932678ZM104.01 17.9976L102.39 16.3415L110.166 8.56511L111.822 10.2212L104.01 17.9976ZM91.5171 30.4903L89.861 28.8342L92.9572 25.7381L89.861 22.6419L91.5171 20.9858L94.6133 24.082L97.6734 21.0218L99.3295 22.6779L96.2694 25.7381L99.2935 28.7622L97.6374 30.4183L94.6133 27.3942L91.5171 30.4903ZM108.222 39.5988L106.566 37.9427L119.455 25.054L121.111 26.7101L108.222 39.5988ZM115.35 40.8589L122.263 33.9465L123.919 35.6026L117.007 42.515L115.35 40.8589Z" fill="#676767"/>
<path d="M1.3681 82.8012L6.37238 73.9447H7.77646L9.25255 82.8012H8.10048L7.70446 80.2451H4.10426L2.70018 82.8012H1.3681ZM4.60828 79.3091H7.52445L7.20043 77.1129C7.05642 76.2129 6.98442 75.4928 6.94842 74.9168C6.69934 75.541 6.39826 76.1431 6.04836 76.7169L4.60828 79.3091Z" fill="#010101"/>
<path d="M10.2966 82.8013L11.6286 76.3929H12.6367L12.4207 77.509C12.7697 77.1169 13.1838 76.7881 13.6448 76.5369C14.0014 76.3533 14.3957 76.2547 14.7968 76.2489C15.0201 76.2263 15.2456 76.2533 15.4572 76.328C15.6688 76.4026 15.8613 76.5232 16.0209 76.6809C16.1708 76.8311 16.2868 77.0116 16.3613 77.2103C16.4358 77.409 16.4671 77.6213 16.4529 77.833C16.4281 78.2098 16.3679 78.5835 16.2729 78.949L15.4089 82.8373H14.3288L15.2288 78.769C15.2943 78.4842 15.3424 78.1956 15.3729 77.905C15.3754 77.8103 15.3574 77.7163 15.3201 77.6293C15.2828 77.5423 15.2271 77.4644 15.1568 77.401C14.9727 77.2555 14.7434 77.179 14.5088 77.1849C14.2288 77.1821 13.9511 77.2347 13.6916 77.3397C13.432 77.4448 13.1959 77.6002 12.9967 77.797C12.5647 78.193 12.2407 78.877 12.0247 79.8851L11.4126 82.8733H10.2966V82.8013Z" fill="#010101"/>
<path d="M20.9172 82.8012L22.7893 73.9447H23.9773L22.1412 82.8012H20.9172Z" fill="#010101"/>
<path d="M26.4975 82.8012L28.1536 74.9528H25.1654L25.3814 73.9447H32.4018L32.1858 74.9528H29.3056L27.6495 82.8012H26.4975Z" fill="#010101"/>
<path d="M33.2659 82.8012L32.7258 73.9447H33.9139L34.1299 78.337C34.1299 78.553 34.1659 79.129 34.1659 80.0291V81.1812C34.6699 80.1731 34.994 79.4531 35.21 79.057L37.9101 73.9447H39.1342L39.4222 79.129C39.4582 79.7051 39.4582 80.4251 39.4942 81.2892C39.6029 80.9678 39.7353 80.6549 39.8902 80.3531C40.1782 79.7051 40.3943 79.2371 40.5383 78.949L43.0584 73.9447H44.2825L39.7822 82.8012H38.4862L38.1981 77.4369C38.1621 76.9689 38.1261 76.4289 38.1261 75.7448C37.8741 76.3209 37.6581 76.7529 37.5141 77.0409L34.4539 82.8012H33.2659Z" fill="#010101"/>
<path d="M53.751 79.6691L54.9031 79.8491C54.6093 80.7736 54.0449 81.5888 53.283 82.1892C52.5959 82.7003 51.7632 82.9779 50.9069 82.9812C50.4377 82.9959 49.9703 82.9175 49.5316 82.7507C49.0929 82.5839 48.6916 82.3318 48.3507 82.0092C47.7027 81.3612 47.4147 80.4251 47.4147 79.201C47.3744 77.746 47.8893 76.3301 48.8548 75.2408C49.2548 74.7976 49.7436 74.4436 50.2894 74.2017C50.8353 73.9598 51.4259 73.8354 52.0229 73.8367C52.8473 73.7933 53.6576 74.0634 54.2911 74.5928C54.8802 75.1053 55.2426 75.8301 55.2991 76.6089L54.183 76.7169C54.107 76.171 53.854 75.6652 53.463 75.2768C53.0714 74.9481 52.5694 74.7808 52.0589 74.8088C51.5348 74.8067 51.0187 74.9378 50.559 75.1897C50.0993 75.4415 49.7111 75.806 49.4308 76.2489C48.8435 77.1195 48.5415 78.1512 48.5667 79.201C48.5157 79.9594 48.7609 80.708 49.2508 81.2891C49.4767 81.5277 49.751 81.7152 50.0552 81.8394C50.3594 81.9636 50.6865 82.0214 51.0149 82.0092C51.6222 82.0093 52.2096 81.7922 52.671 81.3971C53.1739 80.9238 53.5459 80.3285 53.751 79.6691Z" fill="#010101"/>
<path d="M55.8031 80.3531C55.765 79.2162 56.1645 78.108 56.9192 77.2569C57.2157 76.9232 57.5827 76.6596 57.9937 76.4853C58.4046 76.3109 58.8493 76.2302 59.2953 76.2489C59.6404 76.231 59.9853 76.2859 60.3078 76.41C60.6304 76.534 60.9232 76.7244 61.1674 76.9689C61.4131 77.2271 61.6037 77.5326 61.7275 77.8669C61.8513 78.2011 61.9057 78.5571 61.8874 78.913C61.8902 79.6199 61.7429 80.3194 61.4554 80.9651C61.1875 81.5595 60.7489 82.0608 60.1953 82.4052C59.6785 82.7331 59.0793 82.9078 58.4672 82.9092C57.9922 82.909 57.5238 82.7981 57.0992 82.5852C56.7057 82.3834 56.3802 82.0704 56.1631 81.6852C55.919 81.2844 55.7941 80.8223 55.8031 80.3531ZM56.8832 80.2451C56.8425 80.7401 56.9977 81.2313 57.3152 81.6132C57.4561 81.7675 57.6289 81.8893 57.8217 81.9701C58.0144 82.0509 58.2224 82.0888 58.4312 82.0812C58.6675 82.0892 58.9023 82.0398 59.1153 81.9372C59.357 81.8361 59.577 81.6894 59.7633 81.5052C59.9616 81.3145 60.1314 81.0963 60.2673 80.8571C60.412 80.6096 60.521 80.343 60.5914 80.0651C60.7065 79.6917 60.7672 79.3037 60.7714 78.913C60.7947 78.4201 60.6415 77.935 60.3393 77.5449C60.2035 77.3843 60.0315 77.2582 59.8375 77.1769C59.6436 77.0955 59.4331 77.0613 59.2233 77.0769C58.8937 77.0707 58.5691 77.1581 58.2872 77.3289C57.9856 77.5108 57.7275 77.7566 57.5312 78.049C57.3062 78.3795 57.1359 78.7442 57.0272 79.129C56.9416 79.4952 56.8933 79.8692 56.8832 80.2451Z" fill="#010101"/>
<path d="M62.4635 82.8012L63.7956 76.3929H64.8756L64.6596 77.4729C64.9758 77.1137 65.3391 76.7988 65.7397 76.5369C66.0605 76.3651 66.4199 76.2784 66.7837 76.2849C67.1458 76.2817 67.4993 76.3954 67.7918 76.6089C68.0768 76.8319 68.2691 77.1525 68.3318 77.5089C68.6179 77.1438 68.9726 76.838 69.3759 76.6089C69.7325 76.4253 70.1268 76.3267 70.5279 76.3209C70.9654 76.2951 71.3982 76.4224 71.752 76.6809C71.8931 76.8209 72.0017 76.9903 72.0701 77.1769C72.1386 77.3635 72.1651 77.5629 72.148 77.761C72.1354 78.0892 72.0871 78.4152 72.004 78.733L71.14 82.8732H70.0599L70.924 78.553C70.9951 78.3073 71.0315 78.0528 71.032 77.797C71.0293 77.607 70.9516 77.4259 70.816 77.2929C70.6552 77.1593 70.4482 77.0946 70.2399 77.1129C69.8846 77.1194 69.537 77.2187 69.2319 77.4009C68.9008 77.588 68.6269 77.8619 68.4398 78.193C68.2027 78.6586 68.033 79.1556 67.9358 79.6691L67.2878 82.7652H66.2077L67.1078 78.445C67.1438 78.229 67.1798 78.013 67.2158 77.833C67.2109 77.6501 67.1478 77.4735 67.0358 77.3289C66.9736 77.2591 66.8948 77.206 66.8067 77.1746C66.7187 77.1431 66.6241 77.1343 66.5317 77.1489C66.1868 77.1498 65.8494 77.2498 65.5597 77.4369C65.2163 77.6362 64.9309 77.9217 64.7316 78.265C64.4773 78.7393 64.2953 79.2489 64.1916 79.7771L63.5436 82.8012H62.4635Z" fill="#010101"/>
<path d="M72.256 85.2494L74.1281 76.3569H75.1362L74.9562 77.257C75.2406 76.9332 75.5824 76.6647 75.9642 76.4649C76.2554 76.3215 76.5758 76.2476 76.9003 76.2489C77.1879 76.2396 77.4738 76.2964 77.7359 76.415C77.9981 76.5336 78.2295 76.7108 78.4124 76.9329C78.8426 77.4729 79.0603 78.1516 79.0244 78.841C79.0251 79.4674 78.9154 80.0889 78.7004 80.6771C78.516 81.1719 78.2344 81.6248 77.8724 82.0092C77.589 82.2998 77.2608 82.5429 76.9003 82.7293C76.5837 82.873 76.2399 82.9466 75.8922 82.9453C75.5138 82.9438 75.1436 82.8347 74.8249 82.6307C74.5061 82.4267 74.252 82.1362 74.0921 81.7932L73.3721 85.2854L72.256 85.2494ZM74.4162 80.1731C74.4165 80.512 74.4527 80.8499 74.5242 81.1812C74.6257 81.4415 74.8009 81.6667 75.0282 81.8292C75.265 81.9824 75.5385 82.0694 75.8202 82.0812C76.4683 82.0812 76.9723 81.7212 77.3323 81.0372C77.7028 80.377 77.9009 79.6341 77.9084 78.877C77.9441 78.4216 77.8022 77.97 77.5123 77.617C77.3958 77.4735 77.247 77.3596 77.0781 77.2845C76.9091 77.2094 76.7249 77.1753 76.5403 77.1849C76.2616 77.184 75.9879 77.2587 75.7482 77.401C75.4867 77.5786 75.2557 77.7975 75.0642 78.049C74.8392 78.3796 74.669 78.7443 74.5602 79.1291C74.4695 79.4699 74.4211 79.8205 74.4162 80.1731Z" fill="#010101"/>
<path d="M83.9567 81.9732C83.6347 82.2659 83.2706 82.5086 82.8766 82.6933C82.5223 82.8373 82.1431 82.9107 81.7606 82.9093C81.4955 82.9312 81.2289 82.8942 80.98 82.8008C80.731 82.7074 80.5057 82.56 80.3205 82.3692C80.1462 82.1944 80.0086 81.9865 79.9159 81.7578C79.8231 81.529 79.7771 81.284 79.7805 81.0372C79.7742 80.7076 79.8616 80.383 80.0325 80.1011C80.1808 79.8266 80.406 79.6014 80.6805 79.4531C80.9953 79.2802 81.3355 79.1587 81.6886 79.0931C82.1532 79.0213 82.6226 78.9852 83.0927 78.985C83.5927 78.9866 84.0901 78.9139 84.5687 78.769C84.634 78.5206 84.6822 78.268 84.7127 78.013C84.7107 77.8964 84.684 77.7816 84.6344 77.6761C84.5847 77.5706 84.5133 77.4768 84.4247 77.401C84.0925 77.1859 83.7044 77.0733 83.3087 77.0769C82.9107 77.0561 82.5175 77.1702 82.1926 77.401C81.8976 77.6203 81.6725 77.9204 81.5446 78.265L80.4285 78.157C80.6223 77.5626 81.0006 77.0455 81.5086 76.6809C82.0502 76.3194 82.6943 76.1426 83.3447 76.1769C84.0188 76.1282 84.6867 76.3337 85.2168 76.7529C85.3796 76.8831 85.5122 77.0471 85.6055 77.2336C85.6987 77.4201 85.7503 77.6246 85.7568 77.833C85.7444 78.2325 85.6962 78.6301 85.6128 79.021L85.2528 80.6051C85.1576 81.0072 85.0974 81.4168 85.0728 81.8292C85.0854 82.122 85.1338 82.4122 85.2168 82.6933H84.1007C84.0249 82.4596 83.9766 82.218 83.9567 81.9732ZM84.3887 79.5251C84.2259 79.5896 84.057 79.6378 83.8847 79.6691C83.7047 79.7051 83.4167 79.7411 83.0206 79.7771C82.5597 79.8138 82.1024 79.8861 81.6526 79.9931C81.423 80.0598 81.221 80.1987 81.0765 80.3891C80.931 80.5733 80.8546 80.8025 80.8605 81.0372C80.8565 81.1791 80.8833 81.3203 80.9393 81.4508C80.9952 81.5814 81.0789 81.6982 81.1845 81.7932C81.3068 81.9004 81.4498 81.9813 81.6046 82.0309C81.7594 82.0804 81.9228 82.0975 82.0846 82.0812C82.4514 82.0754 82.8107 81.9763 83.1286 81.7932C83.4598 81.6061 83.7336 81.3323 83.9207 81.0012C84.1625 80.5405 84.3209 80.0408 84.3887 79.5251Z" fill="#010101"/>
<path d="M86.5488 82.8012L87.8809 76.3929H88.889L88.673 77.509C89.022 77.1169 89.4361 76.7881 89.897 76.5369C90.2537 76.3533 90.648 76.2547 91.0491 76.2489C91.498 76.2264 91.9378 76.3816 92.2732 76.6809C92.423 76.8311 92.5391 77.0116 92.6136 77.2103C92.6881 77.409 92.7193 77.6213 92.7052 77.833C92.6804 78.2098 92.6201 78.5835 92.5252 78.949L91.6611 82.8373H90.5811L91.4811 78.769C91.5466 78.4842 91.5947 78.1956 91.6251 77.905C91.6277 77.8103 91.6097 77.7163 91.5724 77.6293C91.5351 77.5423 91.4794 77.4644 91.4091 77.4009C91.225 77.2554 90.9957 77.179 90.7611 77.1849C90.4811 77.1821 90.2033 77.2347 89.9438 77.3397C89.6843 77.4448 89.4481 77.6002 89.249 77.797C88.817 78.193 88.4929 78.877 88.2769 79.8851L87.6289 82.8733H86.5488V82.8012Z" fill="#010101"/>
<path d="M92.9932 85.2494L93.0652 84.2053C93.274 84.2761 93.4928 84.3126 93.7133 84.3133C93.9037 84.3214 94.0922 84.2712 94.2533 84.1693C94.4949 83.9592 94.6909 83.7019 94.8293 83.4133L95.1893 82.8012L94.1093 76.3569H95.1893L95.6574 79.5971C95.7654 80.2451 95.8374 80.8571 95.9094 81.5052L98.7535 76.3569H99.8696L95.8014 83.6293C95.5492 84.1615 95.1944 84.6387 94.7573 85.0334C94.5089 85.2226 94.2145 85.3424 93.9045 85.3803C93.5945 85.4183 93.28 85.3731 92.9932 85.2494Z" fill="#010101"/>
</g>
</g>
</g>
<rect x="163" width="1" height="93" fill="#232323"/>
<g clip-path="url(#clip3_22_173)">
<g clip-path="url(#clip4_22_173)">
<g clip-path="url(#clip5_22_173)">
<mask id="mask0_22_173" style="mask-type:luminance" maskUnits="userSpaceOnUse" x="173" y="15" width="182" height="56">
<path d="M354.343 15.1921H173.263V70.1354H354.343V15.1921Z" fill="white"/>
</mask>
<g mask="url(#mask0_22_173)">
<mask id="mask1_22_173" style="mask-type:luminance" maskUnits="userSpaceOnUse" x="173" y="15" width="182" height="56">
<path d="M354.343 15.1921H173.263V70.1354H354.343V15.1921Z" fill="white"/>
</mask>
<g mask="url(#mask1_22_173)">
<path d="M208.006 49.7463C209.416 48.3749 210.388 46.616 210.799 44.6922C211.209 42.7683 211.04 40.7659 210.313 38.9381C209.585 37.1104 208.332 35.5395 206.711 34.424C205.091 33.3086 203.176 32.6987 201.209 32.6716C199.242 32.6445 197.311 33.2013 195.661 34.2717C194.01 35.342 192.714 36.8778 191.937 38.6848C191.159 40.4918 190.935 42.4888 191.292 44.4233C191.65 46.3577 192.573 48.1427 193.945 49.5525C194.855 50.4886 195.941 51.2362 197.141 51.7525C198.34 52.2689 199.629 52.5439 200.935 52.5619C202.241 52.5799 203.537 52.3405 204.75 51.8574C205.964 51.3743 207.07 50.657 208.006 49.7463Z" fill="#231F20"/>
<path d="M199.122 58.9463C195.657 58.5234 192.418 57.0042 189.877 54.6102L190.852 53.5754C193.061 55.6555 195.851 57.0148 198.85 57.4731L199.122 58.9463Z" fill="#231F20"/>
<path d="M211.298 55.5168C208.547 57.6694 205.181 58.8876 201.689 58.994L201.645 57.5745C204.678 57.4836 207.612 56.4727 210.057 54.6758L211.298 55.5168Z" fill="#231F20"/>
<path d="M217.465 44.6021C217.018 48.0668 215.474 51.2978 213.06 53.8229L212.034 52.8418C214.131 50.6474 215.51 47.8672 215.989 44.8705L217.465 44.6021Z" fill="#231F20"/>
<path d="M203.115 26.1336C206.585 26.5718 209.824 28.1078 212.36 30.5174L211.381 31.5492C209.183 29.4569 206.399 28.0829 203.401 27.6098L203.115 26.1336Z" fill="#231F20"/>
<path d="M190.906 29.5035C193.667 27.3629 197.04 26.1612 200.532 26.074L200.568 27.4965C197.534 27.5727 194.595 28.569 192.141 30.3534L190.906 29.5035Z" fill="#231F20"/>
<path d="M184.661 40.5553C185.089 37.0883 186.615 33.849 189.015 31.3106L190.05 32.2858C187.963 34.4904 186.598 37.2781 186.134 40.278L184.661 40.5553Z" fill="#231F20"/>
<path d="M188.067 52.7404C185.919 49.9849 184.707 46.6154 184.608 43.123L186.03 43.0812C186.114 46.1151 187.12 49.0515 188.914 51.4998L188.067 52.7404Z" fill="#231F20"/>
<path d="M247.43 53.3726H267.756V49.5257H254.975L254.951 47.8467H247.4L247.43 53.3726Z" fill="#231F20"/>
<path d="M247.188 32.5989H247.296L247.287 43.791H254.888L254.87 42.6727H266.39V38.8257H254.653L254.563 32.8107H267.544L267.556 28.9637H243.016L229.844 43.791H236.986L247.188 32.5989Z" fill="#231F20"/>
<path d="M221.336 53.3726H229.203L233.658 47.8467H226.244L221.336 53.3726Z" fill="#231F20"/>
<path d="M293.82 49.5942C292.226 49.8449 290.614 49.9626 289.001 49.9462C285.44 49.9462 282.554 49.1618 280.454 47.8586H271.013C274.18 51.8577 280.693 53.8051 288.998 53.8051C292.931 53.8051 296.969 53.2444 300.852 52.5436V47.8467H293.82V49.5942Z" fill="#231F20"/>
<path d="M300.852 39.3833H286.061V43.2303H293.823V43.791H300.852V39.3833Z" fill="#231F20"/>
<path d="M276.565 41.2383C276.565 36.2372 281.286 32.3902 289.836 32.3902C292.773 32.3902 296.444 32.8107 299.277 33.6845L299.737 29.5601C296.197 28.8578 292.595 28.5181 288.986 28.5462C276.553 28.5462 268.895 33.2312 268.895 41.5872C268.9 42.3289 268.98 43.0683 269.134 43.794H277.004C276.703 42.9755 276.551 42.1101 276.553 41.2383" fill="#231F20"/>
<path d="M311.34 28.9637H303.998V43.791H311.34V28.9637Z" fill="#231F20"/>
<path d="M311.34 47.8467H303.998V53.3726H311.34V47.8467Z" fill="#231F20"/>
<path d="M323.615 49.9462C320.788 49.9241 317.985 49.4198 315.327 48.4551L314.648 52.8478C318.268 53.4442 320.048 53.7931 324.035 53.7931C330.724 53.7931 336.54 52.1231 337.592 47.8467H329.791C328.828 49.302 325.914 49.9342 323.615 49.9342" fill="#231F20"/>
<path d="M321.724 35.7839C321.724 33.1268 324.978 32.3902 327.495 32.3902C330.016 32.3931 332.526 32.7464 334.95 33.4399L335.633 29.42C332.754 28.8106 329.817 28.5176 326.874 28.5462C320.424 28.5462 314.078 30.5383 314.078 36.0016C314.078 41.4649 321.432 42.3565 326.185 43.8029H337.1C334.038 38.5931 321.733 39.4967 321.733 35.7928" fill="#231F20"/>
<path d="M338.162 29.754C338.564 29.7545 338.957 29.8745 339.292 30.0986C339.626 30.3227 339.886 30.6409 340.039 31.0129C340.193 31.385 340.232 31.7941 340.153 32.1886C340.073 32.5831 339.879 32.9452 339.594 33.2291C339.309 33.513 338.946 33.7059 338.551 33.7835C338.156 33.861 337.747 33.8197 337.376 33.6648C337.004 33.5099 336.687 33.2482 336.465 32.9131C336.242 32.5779 336.124 32.1842 336.125 31.7818C336.124 31.5144 336.176 31.2495 336.278 31.0023C336.38 30.7551 336.53 30.5307 336.719 30.3421C336.909 30.1534 337.134 30.0043 337.382 29.9033C337.629 29.8024 337.894 29.7516 338.162 29.754ZM338.144 30.1625C337.819 30.1488 337.498 30.2325 337.222 30.4028C336.945 30.573 336.726 30.8221 336.592 31.118C336.458 31.4139 336.416 31.743 336.47 32.0632C336.525 32.3833 336.674 32.6798 336.898 32.9146C337.123 33.1493 337.412 33.3116 337.73 33.3805C338.047 33.4494 338.378 33.4219 338.679 33.3014C338.981 33.1809 339.24 32.9729 339.422 32.7043C339.605 32.4356 339.703 32.1185 339.704 31.7937C339.71 31.5838 339.674 31.3747 339.599 31.1786C339.524 30.9825 339.41 30.8034 339.265 30.6515C339.12 30.4997 338.946 30.3783 338.754 30.2944C338.561 30.2104 338.354 30.1656 338.144 30.1625ZM337.801 32.9628H337.312V30.7112C337.549 30.6696 337.79 30.6486 338.031 30.6486C338.302 30.6226 338.574 30.6854 338.806 30.8275C338.876 30.8866 338.931 30.9616 338.965 31.0462C339 31.1308 339.014 31.2225 339.006 31.3136C339.004 31.4371 338.96 31.5563 338.881 31.6516C338.803 31.747 338.694 31.8129 338.573 31.8385V31.8564C338.77 31.8922 338.895 32.0711 338.934 32.4051C338.946 32.5964 338.988 32.7847 339.059 32.9628H338.564C338.486 32.7729 338.44 32.5714 338.427 32.3663C338.425 32.315 338.411 32.2649 338.388 32.2191C338.364 32.1733 338.332 32.133 338.292 32.1006C338.252 32.0683 338.206 32.0447 338.156 32.0314C338.106 32.0181 338.055 32.0154 338.004 32.0234H337.789L337.801 32.9628ZM337.801 31.6655H338.025C338.305 31.6655 338.523 31.5761 338.523 31.3405C338.523 31.1526 338.385 31.0094 338.063 31.0094C337.944 31.0094 337.864 31.0094 337.801 31.0094V31.6655Z" fill="#231F20"/>
<path d="M217.531 42.0375C217.451 38.6364 216.314 35.3447 214.277 32.6198L213.409 33.8455C215.102 36.2593 216.042 39.1201 216.111 42.0673L217.531 42.0375Z" fill="#231F20"/>
</g>
<mask id="mask2_22_173" style="mask-type:luminance" maskUnits="userSpaceOnUse" x="173" y="15" width="182" height="56">
<path d="M354.343 15.1921H173.263V70.1354H354.343V15.1921Z" fill="white"/>
</mask>
<g mask="url(#mask2_22_173)">
<path d="M345.364 43.1021V44.9988L221.768 44.9779L223.665 41.9361L213.946 42.7592C214.355 41.2682 214.418 39.7036 214.131 38.1845C213.822 36.6825 213.288 35.2358 212.547 33.8932L214.662 30.9379L214.999 32.7272L219.037 24.7976L219.66 25.2957L221.082 21.9914L218.306 24.2072L218.84 24.6366L215.592 30.2132L215.509 28.2897L210.287 33.7173C209.524 32.3737 208.463 31.2229 207.186 30.3534C205.905 29.5108 204.504 28.8664 203.031 28.4418L202.435 24.8632L203.926 25.8831L202.137 18.9914L202.933 18.9019L201.6 15.5619L201.206 19.1047L201.886 19.0301L202.578 23.7002L201.156 22.3851L201.326 29.8405C199.818 29.4145 198.233 29.3461 196.694 29.6406C195.192 29.9495 193.746 30.4834 192.403 31.2242L189.448 29.1068L191.237 28.7699L185.073 25.1525L185.574 24.5292L182.27 23.1097L184.485 25.8861L184.915 25.3493L188.705 28.1645L186.782 28.251L192.254 33.4906C190.873 34.2599 189.691 35.3401 188.801 36.6457C187.958 37.9267 187.312 39.3271 186.886 40.7999L183.307 41.3963L184.327 39.9052L177.436 41.6945L177.346 40.8983L174.006 42.2313L177.537 42.6279L177.468 41.945L182.138 41.2502L180.826 42.6637L188.338 42.5027C187.919 44.0261 187.862 45.6263 188.171 47.1757C188.493 48.675 189.04 50.1169 189.794 51.4521L187.706 54.4343L187.351 52.645L183.802 58.824L183.176 58.329L181.784 61.6601L184.539 59.4175L184.002 58.994L186.779 55.1888L186.883 57.1123L192.009 51.6579C192.79 53.0341 193.882 54.2086 195.197 55.0874C196.486 55.9204 197.894 56.5538 199.372 56.9662L199.477 57.5626L199.733 59.0179L199.999 60.5447L198.493 59.5398L200.35 66.4166L199.557 66.5091L200.92 69.8401L201.284 66.3033L200.604 66.3868L199.87 61.7227L201.302 63.008L201.179 59.0656L201.135 57.6431L201.066 55.4214C202.573 55.8289 204.154 55.882 205.685 55.5765C207.188 55.2565 208.634 54.7116 209.974 53.9601L212.956 56.0477L211.167 56.4025L217.34 59.9602L216.845 60.5865L220.161 61.9792L217.918 59.2236L217.498 59.7604L213.681 56.9781L215.604 56.8767L210.18 51.7742C211.519 50.9955 212.662 49.919 213.52 48.628C214.353 47.3389 214.986 45.9314 215.398 44.453L220.024 43.8566L218.533 46.63H345.4V48.3656L354.012 45.8904L345.364 43.1021ZM209.028 50.6887C207.061 52.6073 204.462 53.7434 201.718 53.8845C198.973 54.0255 196.271 53.1619 194.118 51.4551C194.118 51.4551 194.243 51.5804 194.47 51.7861C193.963 51.4107 193.486 50.9959 193.044 50.5456L193.059 50.5277C191.379 48.7999 190.294 46.5807 189.964 44.1936C189.964 44.1638 189.964 44.1339 189.964 44.1041C189.879 43.4637 189.849 42.8172 189.874 42.1717V42.1419C189.874 42.0464 189.874 41.951 189.892 41.8585C190.093 39.2256 191.211 36.7463 193.05 34.8515C194.889 32.9567 197.334 31.7661 199.96 31.4866C199.96 31.4866 199.706 31.4866 199.274 31.5105C199.963 31.3949 200.662 31.343 201.361 31.3554V31.4061C203.749 31.4612 206.059 32.2694 207.96 33.7155C209.861 35.1615 211.257 37.1713 211.948 39.4579L211.975 39.5444C212.005 39.6488 212.032 39.7502 212.058 39.8426C212.085 39.9351 212.106 40.0335 212.127 40.1408C212.127 40.1856 212.148 40.2333 212.157 40.278C212.187 40.4132 212.213 40.5474 212.237 40.6806V40.7373C212.261 40.8834 212.285 41.0355 212.303 41.1756V41.2472C212.497 42.7501 212.382 44.2767 211.966 45.7339C211.55 47.191 210.842 48.5482 209.884 49.7225C209.884 49.7225 210.004 49.6062 210.2 49.3885C209.853 49.8634 209.468 50.3102 209.049 50.7245L209.028 50.6887Z" fill="#0868B1"/>
</g>
</g>
</g>
</g>
</g>
<defs>
<clipPath id="clip0_22_173">
<rect width="143" height="85.39" fill="white"/>
</clipPath>
<clipPath id="clip1_22_173">
<rect width="143" height="85.39" fill="white"/>
</clipPath>
<clipPath id="clip2_22_173">
<rect width="143" height="85.3968" fill="white" transform="translate(0 -0.00338745)"/>
</clipPath>
<clipPath id="clip3_22_173">
<rect width="180" height="54.27" fill="white" transform="translate(174 15.56)"/>
</clipPath>
<clipPath id="clip4_22_173">
<rect width="180" height="54.27" fill="white" transform="translate(174 15.56)"/>
</clipPath>
<clipPath id="clip5_22_173">
<rect width="180" height="54.2723" fill="white" transform="translate(174 15.5589)"/>
</clipPath>
</defs>
</svg>
