<svg width="54" height="54" viewBox="0 0 54 54" fill="none" xmlns="http://www.w3.org/2000/svg">
<g clip-path="url(#clip0_9_172)">
<g clip-path="url(#clip1_9_172)">
<g clip-path="url(#clip2_9_172)">
<g clip-path="url(#clip3_9_172)">
<mask id="mask0_9_172" style="mask-type:luminance" maskUnits="userSpaceOnUse" x="-1" y="-1" width="182" height="56">
<path d="M180.343 -0.367935H-0.736572V54.5753H180.343V-0.367935Z" fill="white"/>
</mask>
<g mask="url(#mask0_9_172)">
<mask id="mask1_9_172" style="mask-type:luminance" maskUnits="userSpaceOnUse" x="-1" y="-1" width="182" height="56">
<path d="M180.343 -0.367935H-0.736572V54.5753H180.343V-0.367935Z" fill="white"/>
</mask>
<g mask="url(#mask1_9_172)">
<path d="M34.0056 34.1863C35.4159 32.8149 36.3879 31.056 36.7985 29.1321C37.2091 27.2083 37.04 25.2058 36.3125 23.3781C35.585 21.5503 34.3318 19.9794 32.7114 18.864C31.091 17.7485 29.1762 17.1387 27.2092 17.1116C25.2422 17.0844 23.3113 17.6413 21.6608 18.7116C20.0102 19.782 18.7142 21.3178 17.9366 23.1248C17.159 24.9317 16.9347 26.9288 17.2921 28.8632C17.6496 30.7977 18.5727 32.5827 19.9447 33.9925C20.8551 34.9286 21.9411 35.6761 23.1405 36.1925C24.3399 36.7089 25.6293 36.9839 26.935 37.0019C28.2407 37.0199 29.5371 36.7805 30.7503 36.2974C31.9635 35.8143 33.0696 35.0969 34.0056 34.1863Z" fill="#FFF0F3"/>
<path d="M25.1217 43.3863C21.6567 42.9634 18.4175 41.4441 15.877 39.0502L16.8522 38.0154C19.0614 40.0955 21.8508 41.4548 24.8503 41.9131L25.1217 43.3863Z" fill="#FFF0F3"/>
<path d="M37.2978 39.9568C34.547 42.1094 31.1807 43.3276 27.6893 43.434L27.6446 42.0145C30.6779 41.9236 33.6118 40.9127 36.0573 39.1158L37.2978 39.9568Z" fill="#FFF0F3"/>
<path d="M43.4649 29.0421C43.0177 32.5068 41.4743 35.7377 39.0603 38.2629L38.0344 37.2818C40.1306 35.0873 41.5098 32.3072 41.9888 29.3105L43.4649 29.0421Z" fill="#FFF0F3"/>
<path d="M29.1148 10.5736C32.585 11.0118 35.8242 12.5478 38.3595 14.9574L37.3813 15.9892C35.1825 13.8968 32.3992 12.5228 29.4011 12.0498L29.1148 10.5736Z" fill="#FFF0F3"/>
<path d="M16.9059 13.9434C19.6668 11.8028 23.0398 10.6012 26.5323 10.5139L26.5681 11.9364C23.5343 12.0127 20.5953 13.009 18.1405 14.7933L16.9059 13.9434Z" fill="#FFF0F3"/>
<path d="M10.6612 24.9953C11.0894 21.5283 12.615 18.289 15.0151 15.7506L16.05 16.7258C13.9633 18.9303 12.5976 21.7181 12.1344 24.718L10.6612 24.9953Z" fill="#FFF0F3"/>
<path d="M14.0668 37.1804C11.9188 34.4248 10.7069 31.0554 10.6075 27.5629L12.03 27.5212C12.1142 30.5551 13.1201 33.4915 14.9138 35.9398L14.0668 37.1804Z" fill="#FFF0F3"/>
<path d="M43.5306 26.4774C43.451 23.0764 42.3138 19.7846 40.277 17.0598L39.4092 18.2854C41.1016 20.6993 42.0417 23.5601 42.1111 26.5073L43.5306 26.4774Z" fill="#FFF0F3"/>
</g>
<mask id="mask2_9_172" style="mask-type:luminance" maskUnits="userSpaceOnUse" x="-1" y="-1" width="182" height="56">
<path d="M180.343 -0.367935H-0.736572V54.5753H180.343V-0.367935Z" fill="white"/>
</mask>
<g mask="url(#mask2_9_172)">
<path d="M171.364 27.5421V29.4387L47.7682 29.4178L49.6649 26.376L39.946 27.1991C40.3548 25.7082 40.418 24.1436 40.1309 22.6245C39.8221 21.1225 39.2882 19.6757 38.5474 18.3332L40.6617 15.3778L40.9987 17.1671L45.0365 9.23759L45.6598 9.73561L47.0823 6.43138L44.3059 8.64712L44.8397 9.07655L41.5922 14.6532L41.5087 12.7297L36.2869 18.1572C35.5237 16.8136 34.4628 15.6629 33.1855 14.7933C31.9048 13.9508 30.5043 13.3064 29.0313 12.8818L28.4349 9.30319L29.926 10.3231L28.1367 3.43133L28.9329 3.34187L27.5999 0.00184655L27.2062 3.54465L27.8862 3.4701L28.578 8.14015L27.1555 6.82502L27.3255 14.2804C25.8183 13.8545 24.2325 13.7861 22.6942 14.0806C21.1922 14.3894 19.7455 14.9233 18.4029 15.6641L15.4476 13.5468L17.2369 13.2098L11.0728 9.59246L11.5738 8.96919L8.26954 7.54968L10.4853 10.3261L10.9147 9.78929L14.705 12.6044L12.7815 12.6909L18.2538 17.9306C16.8733 18.6998 15.6909 19.7801 14.8005 21.0857C13.9577 22.3667 13.3124 23.767 12.8859 25.2398L9.30733 25.8363L10.3272 24.3452L3.43546 26.1345L3.346 25.3382L0.00598145 26.6713L3.53685 27.0679L3.46827 26.385L8.13832 25.6901L6.82617 27.1037L14.3382 26.9426C13.9192 28.466 13.862 30.0663 14.1712 31.6157C14.4927 33.115 15.0397 34.5569 15.7935 35.8921L13.706 38.8743L13.3511 37.085L9.80237 43.264L9.17611 42.769L7.78345 46.1L10.539 43.8574L10.0022 43.434L12.7786 39.6287L12.8829 41.5522L18.0093 36.0979C18.7898 37.4741 19.8815 38.6486 21.1972 39.5274C22.4863 40.3603 23.8938 40.9937 25.3722 41.4061L25.4766 42.0025L25.733 43.4578L25.9985 44.9847L24.4925 43.9797L26.3504 50.8566L25.5571 50.949L26.9199 54.2801L27.2838 50.7432L26.6038 50.8267L25.8702 46.1627L27.3017 47.448L27.1794 43.5055L27.1347 42.0831L27.0661 39.8614C28.5733 40.2688 30.1543 40.3219 31.6854 40.0164C33.1881 39.6965 34.6338 39.1515 35.9738 38.4001L38.9559 40.4876L37.1666 40.8425L43.3397 44.4002L42.8447 45.0264L46.1608 46.4191L43.9182 43.6636L43.4978 44.2004L39.6806 41.418L41.6041 41.3166L36.1795 36.2142C37.5194 35.4355 38.6622 34.359 39.5196 33.068C40.3524 31.7789 40.9858 30.3713 41.3983 28.893L46.0236 28.2965L44.5326 31.07H171.399V32.8056L180.012 30.3304L171.364 27.5421ZM35.0284 35.1287C33.061 37.0473 30.462 38.1834 27.7176 38.3244C24.9732 38.4655 22.2714 37.6019 20.1176 35.8951C20.1176 35.8951 20.2429 36.0203 20.4695 36.2261C19.9625 35.8507 19.4859 35.4359 19.0441 34.9855L19.059 34.9676C17.3789 33.2398 16.2944 31.0207 15.9635 28.6335C15.9635 28.6037 15.9635 28.5739 15.9635 28.5441C15.8787 27.9036 15.8487 27.2572 15.874 26.6116V26.5818C15.874 26.4864 15.874 26.3909 15.8919 26.2985C16.0932 23.6655 17.2105 21.1863 19.0497 19.2915C20.889 17.3967 23.3339 16.2061 25.9597 15.9266C25.9597 15.9266 25.7062 15.9266 25.2738 15.9504C25.9634 15.8349 26.6622 15.7829 27.3613 15.7953V15.846C29.7493 15.9011 32.0589 16.7094 33.9602 18.1554C35.8614 19.6014 37.2571 21.6113 37.948 23.8979L37.9748 23.9844C38.0046 24.0887 38.0315 24.1901 38.0583 24.2826C38.0851 24.375 38.106 24.4734 38.1269 24.5808C38.1269 24.6255 38.1478 24.6732 38.1567 24.718C38.1865 24.8532 38.2134 24.9874 38.2372 25.1206V25.1772C38.2611 25.3233 38.2849 25.4754 38.3028 25.6156V25.6872C38.4966 27.1901 38.3821 28.7167 37.9663 30.1738C37.5504 31.631 36.842 32.9882 35.8843 34.1625C35.8843 34.1625 36.0036 34.0461 36.2004 33.8284C35.8525 34.3034 35.4676 34.7501 35.0493 35.1645L35.0284 35.1287Z" fill="white"/>
</g>
</g>
</g>
</g>
</g>
</g>
<defs>
<clipPath id="clip0_9_172">
<rect width="54" height="54" fill="white"/>
</clipPath>
<clipPath id="clip1_9_172">
<rect width="180" height="54.27" fill="white"/>
</clipPath>
<clipPath id="clip2_9_172">
<rect width="180" height="54.27" fill="white"/>
</clipPath>
<clipPath id="clip3_9_172">
<rect width="180" height="54.2723" fill="white" transform="translate(0 -0.00113547)"/>
</clipPath>
</defs>
</svg>
